<mxfile host="app.diagrams.net" modified="2024-07-02T02:10:45.692Z" agent="Mozilla/5.0 (Windows NT 10.0; Win64; x64) AppleWebKit/537.36 (KHTML, like Gecko) Chrome/126.0.0.0 Safari/537.36" version="24.6.4" etag="AP-HHRAUrvNBRLR6qj60" type="github">
  <diagram name="第 1 页" id="E3NKsVqtLA-IbNyDLofO">
    <mxGraphModel>
      <root>
        <mxCell id="0" />
        <mxCell id="1" parent="0" />
      </root>
    </mxGraphModel>
  </diagram>
</mxfile>
